<svg width="20" height="30" viewBox="0 0 20 30" fill="none" xmlns="http://www.w3.org/2000/svg">
<g id="arrow-down-solid 1">
<path id="Vector" d="M19.5104 18.1992L11.1771 27.5742C10.8542 27.9434 10.4271 28.125 9.99999 28.125C9.57291 28.125 9.14687 27.9419 8.82187 27.5757L0.48854 18.2007C-0.162501 17.4683 -0.162501 16.2817 0.48854 15.5493C1.13958 14.8169 2.19427 14.8169 2.84531 15.5493L8.33333 21.7266V3.75C8.33333 2.71348 9.07968 1.92773 9.95312 1.92773C10.8266 1.92773 11.6667 2.71348 11.6667 3.75V21.7266L17.1562 15.5508C17.8073 14.8184 18.862 14.8184 19.513 15.5508C20.164 16.2832 20.1614 17.4668 19.5104 18.1992Z" fill="#FF4B4B" fill-opacity="0.47"/>
</g>
</svg>
