<svg width="20" height="30" viewBox="0 0 20 30" fill="none" xmlns="http://www.w3.org/2000/svg">
<g id="arrow-up-solid 1">
<path id="Vector" d="M19.5104 14.4492C19.1875 14.8184 18.7604 15 18.3333 15C17.9062 15 17.4802 14.8169 17.1552 14.4507L11.6667 8.27929V26.25C11.6667 27.2865 10.9203 28.0723 10.0469 28.0723C9.17343 28.0723 8.33333 27.2871 8.33333 26.25V8.27929L2.84531 14.4492C2.19427 15.1816 1.13958 15.1816 0.488541 14.4492C-0.162501 13.7168 -0.162501 12.5303 0.488541 11.7978L8.82187 2.42285C9.47291 1.69043 10.5276 1.69043 11.1786 2.42285L19.512 11.7978C20.1615 12.5332 20.1615 13.7168 19.5104 14.4492Z" fill="#9BDA9E"/>
</g>
</svg>
